<?xml version="1.0" encoding="utf-8"?>
<svg xmlns="http://www.w3.org/2000/svg" viewBox="0 0 170.08 137.86" xmlns:bx="https://boxy-svg.com" width="170.08px" height="137.86px"><defs><bx:export><bx:file format="svg" href="#object-0"/><bx:file format="svg" href="#object-1" path="Untitled 2.svg"/><bx:file format="svg" href="#object-2" path="Untitled 3.svg"/><bx:file format="svg" href="#object-3" path="Untitled 4.svg"/><bx:file format="svg" href="#object-4" path="Untitled 5.svg"/><bx:file format="svg" href="#object-5" path="Untitled 6.svg"/><bx:file format="svg" path="Untitled 7.svg"/></bx:export></defs><path d="M 83.167 68.93 C 83.167 64.83 78.617 60.67 70.677 57.51 C 62.097 54.09 50.677 52.21 38.447 52.21 L 37.857 52.21 C 34.03 63.028 34.03 74.832 37.857 85.65 L 38.447 85.65 C 50.657 85.65 62.097 83.77 70.677 80.35 C 78.617 77.19 83.167 73.03 83.167 68.93 Z" style="fill: rgb(0, 0, 0);" id="object-3"/><path d="M 102.747 35.31 C 110.209 38.089 118.039 39.757 125.987 40.26 C 118.045 28.91 105.751 21.364 92.037 19.42 C 90.945 20.675 90.32 22.268 90.267 23.93 C 90.267 27.99 94.817 32.15 102.747 35.31 Z" style="fill: rgb(0, 0, 0);" id="object-0"/><path d="M 72.117 39.62 C 76.192 40.768 80.198 42.147 84.117 43.75 C 87.117 44.92 90.277 46.14 93.407 47.09 C 106.747 51.15 119.987 51.74 130.847 48.93 C 130.112 47.254 129.287 45.618 128.377 44.03 C 118.217 43.47 108.817 41.6 101.377 38.65 C 91.877 34.93 86.627 29.64 86.627 23.93 C 86.643 22.203 87.112 20.51 87.987 19.02 C 86.987 18.93 85.987 18.93 84.987 18.93 C 69.301 18.917 54.52 26.275 45.077 38.8 C 46.587 38.55 48.077 38.34 49.677 38.17 C 57.183 37.292 64.786 37.783 72.117 39.62 Z" style="fill: rgb(0, 0, 0);" id="object-1"/><path d="M 90.267 113.93 C 90.331 115.578 90.955 117.155 92.037 118.4 C 105.745 116.466 118.038 108.934 125.987 97.6 C 118.047 98.122 110.227 99.807 102.777 102.6 C 94.817 105.71 90.267 109.87 90.267 113.93 Z" style="fill: rgb(0, 0, 0);" id="object-5"/><path d="M 98.767 89.09 C 94.818 90.205 90.936 91.541 87.137 93.09 C 84.047 94.29 80.847 95.53 77.587 96.52 C 69.723 98.949 61.546 100.213 53.317 100.27 L 51.907 100.27 C 49.767 100.23 47.693 100.093 45.687 99.86 C 55.159 111.92 69.652 118.952 84.987 118.93 C 85.987 118.93 86.987 118.93 87.987 118.84 C 87.114 117.35 86.645 115.657 86.627 113.93 C 86.627 108.18 91.877 102.93 101.407 99.13 C 108.817 96.13 118.217 94.31 128.407 93.75 C 129.177 92.42 129.877 91.04 130.527 89.63 C 127.053 88.724 123.516 88.079 119.947 87.7 C 112.861 86.879 105.685 87.35 98.767 89.09 Z" style="fill: rgb(0, 0, 0);" id="object-4"/><path d="M 132.197 52.42 C 127.578 53.607 122.835 54.238 118.067 54.3 L 116.657 54.3 C 108.428 54.249 100.251 52.992 92.387 50.57 C 89.127 49.57 85.927 48.34 82.837 47.14 C 79.038 45.591 75.155 44.255 71.207 43.14 C 64.296 41.417 57.13 40.96 50.057 41.79 C 47.412 42.071 44.784 42.498 42.187 43.07 C 41.112 44.841 40.151 46.678 39.307 48.57 C 51.647 48.66 63.237 50.62 72.027 54.13 C 81.557 57.92 86.807 63.13 86.807 68.93 C 86.807 74.73 81.557 79.93 71.987 83.73 C 63.197 87.24 51.607 89.2 39.267 89.29 C 40.259 91.511 41.412 93.657 42.717 95.71 C 52.827 97.52 64.637 96.71 76.487 93.04 C 79.617 92.04 82.747 90.87 85.777 89.7 C 89.695 88.097 93.701 86.718 97.777 85.57 C 105.107 83.733 112.711 83.242 120.217 84.12 C 124.134 84.533 128.013 85.255 131.817 86.28 C 135.831 75.368 135.937 63.401 132.117 52.42 L 132.197 52.42 Z" style="fill: rgb(0, 0, 0);" id="object-2"/></svg>